# xmcd CD database file
#
# Track frame offsets:
#	150
#	24867
#	49162
#
# Disc length: 901 seconds
#
# Revision: 0
# Processed by: cddbd v1.5.1PL2 Copyright (c) Steve Scherf et al.
# Submitted via: CDex 1.51
#
DISCID=19038303
DTITLE=辛島美登里 - そばにいたい
DYEAR=2005
DGENRE=Japanese Pop
TTITLE0=そばにいたい
TTITLE1=紅葉空
TTITLE2=birdcall-約束
EXTD=YEAR: 2005
EXTT0=
EXTT1=
EXTT2=
PLAYORDER=
